# xmcd
#
# Track frame offsets: 
#        150
#        22093
#        42237
#        63977
#        82780
#        102832
#        121831
#        145007
#        161631
#        177746
#        196634
#        216804
#
# Disc length: 3202 seconds
#
# Revision: 0
# Processed by: cddbd v1.5.2PL0 Copyright (c) Steve Scherf et al.
# Submitted via: ExactAudioCopyFreeDBPlugin 1.0
#
DISCID=9c0c800c
DTITLE=陈瑞 - stereo 夜难寐
DYEAR=2013
DGENRE=Acid
TTITLE0=相思的债
TTITLE1=夜难寐
TTITLE2=最后一个情人
TTITLE3=晚安阳光
TTITLE4=世上没有我这样的人
TTITLE5=红烛泪
TTITLE6=昨夜
TTITLE7=一世情缘一世愁
TTITLE8=玫瑰花又开
TTITLE9=曾经
TTITLE10=500年情缘
TTITLE11=落花飞
EXTD=
EXTT0=
EXTT1=
EXTT2=
EXTT3=
EXTT4=
EXTT5=
EXTT6=
EXTT7=
EXTT8=
EXTT9=
EXTT10=
EXTT11=
PLAYORDER=
